# xmcd CD database file
#
# Track frame offsets:
#	150
#	21437
#	40400
#	61137
#	82650
#	102150
#	121675
#	139925
#	179562
#	195762
#	218762
#	235437
#	255087
#	274150
#	292487
#	311050
#
# Disc length: 4404 seconds
#
# Revision: 0
# Processed by: cddbd v1.5PL3 Copyright (c) Steve Scherf et al.
# Submitted via: CDex 1.51
#
DISCID=e3113210
DTITLE=Various Artist - スーパー・アイドル・ヒット！
DYEAR=1990
DGENRE=Pop
TTITLE0=宮沢りえ/NO TITLIST
TTITLE1=南野陽子/へんなの!!
TTITLE2=渡辺満里奈/大好きなシャツ(1990旅行作戦)
TTITLE3=Lip's/Splendid Love
TTITLE4=田山真美子/あなたが微笑むなら
TTITLE5=中野理絵/天使のカウントダウン
TTITLE6=中山忍/箱入り娘の嘆き
TTITLE7=芳賀ゆい/星空のパスポート
TTITLE8=南野陽子/耳をすましてごらん
TTITLE9=吉田真里子/陽ざしのソリチュード
TTITLE10=河田純子/架空の恋人たち
TTITLE11=宍戸留美/コズミック・ランデブー
TTITLE12=伊藤智恵理/天気になれ
TTITLE13=本田理沙/ドキュメンタリー
TTITLE14=渡辺満里奈/新しい気持ち
TTITLE15=南野陽子/ダブルゲーム
EXTD=YEAR: 1990
EXTT0=
EXTT1=
EXTT2=
EXTT3=
EXTT4=
EXTT5=
EXTT6=
EXTT7=
EXTT8=
EXTT9=
EXTT10=
EXTT11=
EXTT12=
EXTT13=
EXTT14=
EXTT15=
PLAYORDER=
